<svg width="25" height="25" viewBox="0 0 25 25" fill="none" xmlns="http://www.w3.org/2000/svg">
<path d="M2.8335 12.4805C2.8335 8.00247 2.8335 5.76247 4.2245 4.37147C5.6155 2.98047 7.8545 2.98047 12.3335 2.98047C16.8115 2.98047 19.0515 2.98047 20.4425 4.37147C21.8335 5.76247 21.8335 8.00147 21.8335 12.4805C21.8335 16.9585 21.8335 19.1985 20.4425 20.5895C19.0515 21.9805 16.8125 21.9805 12.3335 21.9805C7.8555 21.9805 5.6155 21.9805 4.2245 20.5895C2.8335 19.1985 2.8335 16.9595 2.8335 12.4805Z" stroke="black" stroke-width="1.5" stroke-linecap="round" stroke-linejoin="round"/>
<path d="M17.8415 6.98047H17.8315M16.8335 12.4805C16.8335 13.6739 16.3594 14.8185 15.5155 15.6624C14.6716 16.5064 13.527 16.9805 12.3335 16.9805C11.14 16.9805 9.99543 16.5064 9.15152 15.6624C8.3076 14.8185 7.8335 13.6739 7.8335 12.4805C7.8335 11.287 8.3076 10.1424 9.15152 9.29849C9.99543 8.45457 11.14 7.98047 12.3335 7.98047C13.527 7.98047 14.6716 8.45457 15.5155 9.29849C16.3594 10.1424 16.8335 11.287 16.8335 12.4805Z" stroke="black" stroke-width="1.5" stroke-linecap="round" stroke-linejoin="round"/>
</svg>
