<svg width="25" height="25" viewBox="0 0 25 25" fill="none" xmlns="http://www.w3.org/2000/svg">
<path d="M3.1665 12.4805C3.1665 8.00247 3.1665 5.76247 4.5575 4.37147C5.9485 2.98047 8.1875 2.98047 12.6665 2.98047C17.1445 2.98047 19.3845 2.98047 20.7755 4.37147C22.1665 5.76247 22.1665 8.00147 22.1665 12.4805C22.1665 16.9585 22.1665 19.1985 20.7755 20.5895C19.3845 21.9805 17.1455 21.9805 12.6665 21.9805C8.1885 21.9805 5.9485 21.9805 4.5575 20.5895C3.1665 19.1985 3.1665 16.9595 3.1665 12.4805Z" stroke="black" stroke-width="1.5" stroke-linecap="round" stroke-linejoin="round"/>
<path d="M11.2024 11.4884C10.3824 11.3724 8.51239 11.5634 7.59639 13.2584C6.68039 14.9534 7.60339 16.7174 8.18039 17.3874C8.74939 18.0144 10.5584 19.2014 12.4774 18.0424C12.9534 17.7554 13.5464 17.5404 14.2184 15.2954L14.1404 6.46143C14.0104 7.43443 15.0854 9.71643 18.1444 9.98643" stroke="black" stroke-width="1.5" stroke-linecap="round" stroke-linejoin="round"/>
</svg>
