<svg width="24" height="25" viewBox="0 0 24 25" fill="none" xmlns="http://www.w3.org/2000/svg">
<path d="M14 12.4805L10.5 14.4805V10.4805L14 12.4805Z" fill="black" stroke="black" stroke-width="1.5" stroke-linecap="round" stroke-linejoin="round"/>
<path d="M2 13.1885V11.7725C2 8.87749 2 7.42949 2.905 6.49849C3.811 5.56649 5.237 5.52649 8.088 5.44549C9.438 5.40749 10.818 5.38049 12 5.38049C13.182 5.38049 14.561 5.40749 15.912 5.44549C18.763 5.52649 20.189 5.56649 21.094 6.49849C21.999 7.43049 22 8.87849 22 11.7725V13.1875C22 16.0835 22 17.5305 21.095 18.4625C20.189 19.3935 18.764 19.4345 15.912 19.5145C14.562 19.5535 13.182 19.5805 12 19.5805C10.818 19.5805 9.439 19.5535 8.088 19.5145C5.237 19.4345 3.811 19.3945 2.905 18.4625C1.999 17.5305 2 16.0825 2 13.1885Z" stroke="black" stroke-width="1.5"/>
</svg>
